[img]http://i.imgur.com/FSagk.jpg[/img]
[code]
Resident.Evil.Retribution.2012.480p.BDRip.XViD.AC3-26k
 
http://www.imdb.com/title/tt1855325/

Plot:

Alice fights alongside a resistance movement in the continuing battle against the Umbrella Corporation and the undead.

Sources - VIDEO: Resident.Evil.Retribution.2012.1080p.BluRay.AVC.DTS-HD.MA.5.1-HDChina ..... thanks .... :P
          AUDIO: Resident.Evil.Retribution.2012.1080p.BluRay.AVC.DTS-HD.MA.5.1-HDChina ..... thanks .... :P

Format                                   : AVI
Format/Info                              : Audio Video Interleave
File size                                : 1.68 GiB
Duration                                 : 1h 35mn
Overall bit rate                         : 2 519 Kbps

Video
ID                                       : 0
Format                                   : MPEG-4 Visual
Format profile                           : Advanced Simple@L5
Format settings, BVOP                    : 2
Format settings, QPel                    : No
Format settings, GMC                     : No warppoints
Format settings, Matrix                  : Default (H.263)
Codec ID                                 : XVID
Codec ID/Hint                            : XviD
Duration                                 : 1h 35mn
Bit rate                                 : 2 000 Kbps
Width                                    : 720 pixels
Height                                   : 304 pixels
Display aspect ratio                     : 2.35:1
Frame rate                               : 23.976 fps
Color space                              : YUV
Chroma subsampling                       : 4:2:0
Bit depth                                : 8 bits
Scan type                                : Progressive
Compression mode                         : Lossy
Bits/(Pixel*Frame)                       : 0.381
Stream size                              : 1.34 GiB (79%)
Writing library                          : XviD 1.2.1 (UTC 2008-12-04)

Audio
ID                                       : 1
Format                                   : AC-3
Format/Info                              : Audio Coding 3
Mode extension                           : CM (complete main)
Format settings, Endianness              : Big
Codec ID                                 : 2000
Duration                                 : 1h 35mn
Bit rate mode                            : Constant
Bit rate                                 : 512 Kbps
Channel(s)                               : 6 channels
Channel positions                        : Front: L C R, Side: L R, LFE
Sampling rate                            : 48.0 KHz
Bit depth                                : 16 bits
Compression mode                         : Lossy
Stream size                              : 350 MiB (20%)
Alignment                                : Aligned on interleaves
Interleave, duration                     : 64 ms (1.53 video frames)
Interleave, preload duration             : 192 ms

Notes -

Took the BD made a script to make magic happen and this is the outcome.. enjoy

[/code]

Screens:

[img]http://i.imgur.com/1QToU.png[/img]
[img]http://i.imgur.com/JTIDy.png[/img]
[img]http://i.imgur.com/LBb1a.png[/img]
[img]http://i.imgur.com/bRxMc.png[/img]
[img]http://i.imgur.com/keqFo.jpg[/img]

Greetz:
XtremeEncode|CM8|RX|VISION|HDSCENE|xTriLL|ADTRG|CRYS|REMIXHD|HS|Tommiecook
BIDA|RX|REFILL|INSPiRAL|AXED|HOPE|Anonymous|GooN|NOIR|Blackjesus|Gabroo Punjab Deh
|UNiQUE|RESiSTANCE|HS|LEGION

To all the people who have helped me, you know who you are

Anything to offer email us @: 26k@hushmail.me 